# xmcd CD database file
#
# Track frame offsets:
#	150
#	16561
#	31036
#	47267
#	70031
#	85704
#	102910
#	115782
#	136456
#	155778
#	174168
#	198396
#	214515
#	234952
#	251447
#	272511
#
# Disc length: 3833 seconds
#
# Revision: 0
# Processed by: cddbd v1.5.2PL0 Copyright (c) Steve Scherf et al.
# Submitted via: CDex 1.51
#
DISCID=ba0ef710
DTITLE=Varioius Artists - The Hottest Aussie Blues and Roots 2007 Vol. 4
DYEAR=2007
DGENRE=Blues
TTITLE0=Andy Cowan - Never Look Back
TTITLE1=The Others - Smiling Johnny
TTITLE2=Toby - Satisfaction
TTITLE3=Dutch Tilders - Step A Little Lighter
TTITLE4=On The Level - Baby Gone Left Me
TTITLE5=Andrea Marr - He Only Rocks On Stage
TTITLE6=Nick Charles - Waitin' On The Blues
TTITLE7=Diamond Dave And The Doodaddies - Much Too Much
TTITLE8=Paul Yates feat: Dave Hole - Po' Boy
TTITLE9=Mississippi Shakedown - TalkingTo My Baby
TTITLE10=Men In Blues - Everyday Actress
TTITLE11=Toby - Tu Es Belle
TTITLE12=Juzzie Smith - Little Journey
TTITLE13=Danny Burton - Run Home To Momma
TTITLE14=Paul Yates - Mr. Bowman
TTITLE15=Craig Sinclair - Waltzing Matilda
EXTD=YEAR: 2007
EXTT0=
EXTT1=
EXTT2=
EXTT3=
EXTT4=
EXTT5=
EXTT6=
EXTT7=
EXTT8=
EXTT9=
EXTT10=
EXTT11=
EXTT12=
EXTT13=
EXTT14=
EXTT15=
PLAYORDER=
